# xmcd
#
# Track frame offsets:
#	150
#	18493
#	37053
#	53243
#	69538
#	84024
#	101937
#	117142
#	134198
#	153561
#	171348
#	188031
#
# Disc length: 2759 seconds
#
# Revision: 0
# Processed by: cddbd v1.5.1PL0 Copyright (c) Steve Scherf et al.
# Submitted via: audiograbber 1.83.01
#
DISCID=a80ac50c
DTITLE=Премьер-министр. - (2003) - Пятый океан.
DYEAR=2003
DGENRE=Pop
TTITLE0=Простая арифметика.
TTITLE1=Cosa Sei - Зачем. (дуэт с Riccie and Poveri)
TTITLE2=Синий иней.
TTITLE3=Две минуты.
TTITLE4=Радиоволна.
TTITLE5=Тебя придумал дождь.
TTITLE6=Пудра.
TTITLE7=Туман. (дуэт с Владимиром Пресняковым мл.)
TTITLE8=Плачет дождик. (дуэт с Надеждой Кадышевой)
TTITLE9=Засыпай.
TTITLE10=Девочка-модель.
TTITLE11=Пятый океан. (дуэт с Владимиром Пресняковым ст. и детским хором студии
TTITLE11=Игра)
EXTD=
EXTT0=
EXTT1=
EXTT2=
EXTT3=
EXTT4=
EXTT5=
EXTT6=
EXTT7=
EXTT8=
EXTT9=
EXTT10=
EXTT11=
PLAYORDER=
